# 3ds Max Wavefront OBJ Exporter v0.97b - (c)2007 guruware
# File Created: 28.04.2016 15:56:56

#
# object Cylinder001
#

v  12.3008 3.1369 0.6054
v  12.6630 3.1369 1.3835
v  12.6630 -0.0471 1.3835
v  12.3008 -0.0471 0.6054
v  11.2389 3.1369 -0.1197
v  11.2389 -0.0471 -0.1197
v  9.5495 3.1369 -0.7424
v  9.5495 -0.0471 -0.7424
v  7.3479 3.1369 -1.2201
v  7.3479 -0.0471 -1.2201
v  4.8808 3.1369 -1.3835
v  4.8808 -0.0471 -1.3835
v  0.0000 3.1369 1.2953
v  0.0000 3.1369 1.3835
v  0.0000 3.1369 1.1989
v  0.0000 3.1369 1.0828
v  0.0000 3.1369 0.9243
v  0.0000 3.1369 0.7089
v  0.0000 3.1369 -1.3835
v  0.0000 -0.0471 -1.3835
v  -12.3008 3.1369 0.6054
v  -12.3008 -0.0471 0.6054
v  -12.6630 -0.0471 1.3835
v  -12.6630 3.1369 1.3835
v  -11.2389 3.1369 -0.1197
v  -11.2389 -0.0471 -0.1197
v  -9.5495 3.1369 -0.7424
v  -9.5495 -0.0471 -0.7424
v  -7.3479 3.1369 -1.2201
v  -7.3479 -0.0471 -1.2201
v  -4.8808 3.1369 -1.3835
v  -4.8808 -0.0471 -1.3835
# 32 vertices

vn 0.7625 0.0000 -0.6470
vn 0.9066 0.0000 -0.4220
vn 0.4583 0.0000 -0.8888
vn 0.2796 0.0000 -0.9601
vn 0.1395 0.0000 -0.9902
vn 0.0331 0.0000 -0.9995
vn -0.0000 1.0000 0.0000
vn 0.0000 1.0000 0.0000
vn 0.0000 0.0000 -1.0000
vn -0.7625 0.0000 -0.6470
vn -0.9066 0.0000 -0.4220
vn -0.4583 0.0000 -0.8888
vn -0.2796 0.0000 -0.9601
vn -0.1395 0.0000 -0.9902
vn -0.0331 0.0000 -0.9995
vn 0.0000 0.0000 1.0000
# 16 vertex normals

vt 0.7917 1.0000 1.0000
vt 0.7500 1.0000 1.0000
vt 0.7500 0.5000 1.0000
vt 0.7917 0.5000 1.0000
vt 0.8333 1.0000 1.0000
vt 0.8333 0.5000 1.0000
vt 0.8750 1.0000 1.0000
vt 0.8750 0.5000 1.0000
vt 0.9167 1.0000 1.0000
vt 0.9167 0.5000 1.0000
vt 0.9583 1.0000 1.0000
vt 0.9583 0.5000 1.0000
vt 0.3706 0.9830 0.2500
vt 0.4853 0.5548 0.2500
vt 0.5000 0.5553 0.2500
vt 0.5000 1.0000 0.2500
vt 0.2500 0.9330 0.2500
vt 0.4693 0.5532 0.2500
vt 0.1464 0.8536 0.2500
vt 0.4500 0.5500 0.2500
vt 0.0670 0.7500 0.2500
vt 0.4236 0.5441 0.2500
vt 0.0170 0.6294 0.2500
vt 0.3823 0.5316 0.2500
vt 0.0042 0.5316 0.2500
vt 0.9898 0.5000 1.0000
vt 0.9898 1.0000 1.0000
# 27 texture coords

g Cylinder001
s 8
f 1/1/1 2/2/2 3/3/2 
f 3/3/2 4/4/1 1/1/1 
f 5/5/3 1/1/1 4/4/1 
f 4/4/1 6/6/3 5/5/3 
f 7/7/4 5/5/3 6/6/3 
f 6/6/3 8/8/4 7/7/4 
f 9/9/5 7/7/4 8/8/4 
f 8/8/4 10/10/5 9/9/5 
f 11/11/6 9/9/5 10/10/5 
f 10/10/5 12/12/6 11/11/6 
s 1
f 1/13/7 13/14/7 14/15/7 
f 14/15/7 2/16/7 1/13/7 
f 13/14/7 1/13/7 5/17/7 
f 5/17/7 15/18/7 13/14/7 
f 15/18/7 5/17/7 7/19/7 
f 7/19/7 16/20/7 15/18/7 
f 16/20/7 7/19/7 9/21/7 
f 9/21/7 17/22/7 16/20/7 
f 17/22/7 9/21/7 11/23/7 
f 11/23/7 18/24/8 17/22/7 
f 11/23/7 19/25/8 18/24/8 
s 8
f 11/11/6 12/12/6 20/26/9 
f 20/26/9 19/27/9 11/11/6 
f 21/1/10 22/4/10 23/3/11 
f 23/3/11 24/2/11 21/1/10 
f 25/5/12 26/6/12 22/4/10 
f 22/4/10 21/1/10 25/5/12 
f 27/7/13 28/8/13 26/6/12 
f 26/6/12 25/5/12 27/7/13 
f 29/9/14 30/10/14 28/8/13 
f 28/8/13 27/7/13 29/9/14 
f 31/11/15 32/12/15 30/10/14 
f 30/10/14 29/9/14 31/11/15 
s 1
f 21/13/8 24/16/8 14/15/7 
f 14/15/7 13/14/7 21/13/8 
f 13/14/7 15/18/7 25/17/8 
f 25/17/8 21/13/8 13/14/7 
f 15/18/7 16/20/7 27/19/8 
f 27/19/8 25/17/8 15/18/7 
f 16/20/7 17/22/7 29/21/8 
f 29/21/8 27/19/8 16/20/7 
f 17/22/7 18/24/8 31/23/8 
f 31/23/8 29/21/8 17/22/7 
f 31/23/8 18/24/8 19/25/8 
s 8
f 31/11/15 19/27/9 20/26/9 
f 20/26/9 32/12/15 31/11/15 
s 2
f 23/26/16 3/13/16 2/2/16 
f 2/2/16 24/25/16 23/26/16 
# 48 faces

