# This file uses centimeters as units for non-parametric coordinates.

mtllib spart 2.mtl
g default
v 0.000000 -0.518495 2.533915
v 0.000000 -0.431896 2.240023
v 0.000000 -0.215493 2.058387
v -0.000000 0.027465 2.058387
v -0.000000 0.199794 2.240023
v -0.000000 0.258963 2.533915
v -0.000000 0.199794 2.827808
v -0.000000 0.027465 3.009444
v 0.000000 -0.215493 3.009444
v 0.000000 -0.431896 2.827808
v 4.246783 -0.808292 2.533915
v 4.272812 -0.732836 2.240023
v 4.335026 -0.552476 2.058387
v 4.397829 -0.370411 2.058387
v 4.434713 -0.263482 2.240023
v 4.444976 -0.233728 2.533915
v 4.434713 -0.263483 2.827808
v 4.397829 -0.370411 3.009444
v 4.335026 -0.552476 3.009444
v 4.272812 -0.732836 2.827808
v 2.012990 -0.379777 2.240023
v 2.012990 -0.118740 2.058387
v 2.012990 0.178766 2.058387
v 2.012990 0.401299 2.240023
v 2.012990 0.485794 2.533915
v 2.012990 0.401299 2.827808
v 2.012990 0.178766 3.009444
v 2.012990 -0.118740 3.009444
v 2.012990 -0.379777 2.827808
v 2.012990 -0.482652 2.533915
v 1.335935 -0.430973 2.240023
v 1.335935 -0.233311 2.058387
v 1.335935 -0.038861 2.058387
v 1.335935 0.079197 2.240023
v 1.335935 0.118550 2.533915
v 1.335935 0.079197 2.827808
v 1.335935 -0.038861 3.009444
v 1.335935 -0.233311 3.009444
v 1.335935 -0.430973 2.827808
v 1.335935 -0.514412 2.533915
v 3.033493 -0.523645 2.533915
v 3.033493 -0.439522 2.827808
v 3.033493 -0.232473 3.009444
v 3.033493 -0.007908 3.009444
v 3.033493 0.146165 2.827808
v 3.033493 0.199596 2.533915
v 3.033493 0.146165 2.240023
v 3.033493 -0.007908 2.058387
v 3.033493 -0.232473 2.058387
v 3.033493 -0.439522 2.240023
vt 0.300053 0.018126
vt 0.338365 0.018126
vt 0.376677 0.018126
vt 0.031866 0.018126
vt 0.070178 0.018126
vt 0.108491 0.018126
vt 0.146803 0.018126
vt 0.185116 0.018126
vt 0.223428 0.018126
vt 0.261740 0.018126
vt 0.300053 0.401250
vt 0.338365 0.401250
vt 0.376677 0.401250
vt 0.031866 0.401250
vt 0.070178 0.401250
vt 0.108491 0.401250
vt 0.146803 0.401250
vt 0.185116 0.401250
vt 0.223428 0.401250
vt 0.261740 0.401250
vt 0.414990 0.018126
vt 0.414990 0.401250
vt 0.338365 0.172371
vt 0.376677 0.172371
vt 0.414990 0.172371
vt 0.031866 0.172371
vt 0.070178 0.172371
vt 0.108491 0.172371
vt 0.146803 0.172371
vt 0.185116 0.172371
vt 0.223428 0.172371
vt 0.261740 0.172371
vt 0.300053 0.172371
vt 0.338365 0.120492
vt 0.376677 0.120492
vt 0.414990 0.120492
vt 0.031866 0.120492
vt 0.070178 0.120492
vt 0.108491 0.120492
vt 0.146803 0.120492
vt 0.185116 0.120492
vt 0.223428 0.120492
vt 0.261740 0.120492
vt 0.300053 0.120492
vt 0.300053 0.250567
vt 0.261740 0.250567
vt 0.223428 0.250567
vt 0.185116 0.250567
vt 0.146803 0.250567
vt 0.108491 0.250567
vt 0.070178 0.250567
vt 0.414990 0.250567
vt 0.031866 0.250567
vt 0.376677 0.250567
vt 0.338365 0.250567
vn -0.004956 -0.953054 -0.302761
vn -0.005083 -0.953053 -0.302762
vn -0.141010 -0.948559 -0.283464
vn -0.145236 -0.948202 -0.282525
vn -0.001136 -0.616190 -0.787597
vn -0.002371 -0.616114 -0.787653
vn -0.105220 -0.637850 -0.762939
vn -0.113452 -0.641590 -0.758611
vn -0.000000 -0.000000 -1.000000
vn -0.000000 -0.000000 -1.000000
vn 0.000000 0.000000 -1.000000
vn 0.000000 0.000000 -1.000000
vn -0.026367 0.708342 -0.705377
vn -0.008541 0.707128 -0.707034
vn 0.183365 0.735926 -0.651759
vn 0.190228 0.745261 -0.639061
vn -0.048147 0.974495 -0.219185
vn -0.035446 0.974929 -0.219677
vn 0.269547 0.946902 -0.175273
vn 0.270578 0.947064 -0.172792
vn -0.035446 0.974929 0.219677
vn -0.048147 0.974495 0.219186
vn 0.270578 0.947064 0.172792
vn 0.269547 0.946902 0.175274
vn -0.008541 0.707128 0.707034
vn -0.026367 0.708342 0.705377
vn 0.190228 0.745261 0.639061
vn 0.183365 0.735926 0.651759
vn 0.000000 0.000000 1.000000
vn 0.000000 0.000000 1.000000
vn -0.000000 -0.000000 1.000000
vn -0.000000 -0.000000 1.000000
vn -0.002371 -0.616114 0.787653
vn -0.001136 -0.616190 0.787597
vn -0.113452 -0.641590 0.758611
vn -0.105220 -0.637850 0.762939
vn -0.005083 -0.953053 0.302762
vn -0.004956 -0.953054 0.302761
vn -0.145236 -0.948202 0.282525
vn -0.141010 -0.948559 0.283463
vn 0.023228 -0.646296 -0.762733
vn 0.025162 -0.645339 -0.763482
vn -0.000000 0.000000 -1.000000
vn -0.000000 0.000000 -1.000000
vn -0.059389 0.763243 -0.643376
vn -0.075451 0.760037 -0.645485
vn -0.100274 0.978910 -0.177992
vn -0.108143 0.977999 -0.178392
vn -0.108143 0.977999 0.178392
vn -0.100274 0.978910 0.177992
vn -0.075451 0.760037 0.645485
vn -0.059389 0.763243 0.643376
vn 0.000000 0.000000 1.000000
vn 0.000000 0.000000 1.000000
vn 0.025162 -0.645339 0.763481
vn 0.023228 -0.646297 0.762733
vn 0.021097 -0.957960 0.286124
vn 0.020821 -0.958002 0.286006
vn 0.020821 -0.958001 -0.286007
vn 0.021097 -0.957960 -0.286124
vn 0.000000 -0.809017 -0.587785
vn 0.000000 -0.309017 -0.951057
vn 0.000000 -0.309017 -0.951057
vn -0.000000 0.309017 -0.951057
vn -0.000000 0.309017 -0.951057
vn -0.000000 0.809017 -0.587785
vn -0.000000 0.809017 -0.587785
vn -0.000000 1.000000 0.000000
vn -0.000000 1.000000 0.000000
vn -0.000000 0.809017 0.587785
vn -0.000000 0.809017 0.587785
vn -0.000000 0.309017 0.951057
vn -0.000000 0.309017 0.951057
vn 0.000000 -0.309017 0.951057
vn 0.000000 -0.309017 0.951057
vn 0.000000 -0.809017 0.587785
vn 0.000000 -0.809017 0.587785
vn 0.000000 -1.000000 -0.000000
vn 0.000000 -1.000000 -0.000000
vn 0.000000 -0.809017 -0.587785
vn 0.000000 -1.000000 -0.000000
vn 0.000000 -0.809017 0.587785
vn 0.000000 -0.809017 0.587785
vn 0.000000 -0.309017 0.951057
vn 0.000000 -0.309017 0.951057
vn -0.000000 0.309017 0.951057
vn -0.000000 0.309017 0.951057
vn -0.000000 0.809017 0.587785
vn -0.000000 0.809017 0.587785
vn -0.000000 1.000000 0.000000
vn -0.000000 1.000000 0.000000
vn -0.000000 0.809017 -0.587785
vn -0.000000 0.809017 -0.587785
vn -0.000000 0.309017 -0.951057
vn -0.000000 0.309017 -0.951057
vn 0.000000 -0.309017 -0.951057
vn 0.000000 -0.309017 -0.951057
vn 0.000000 -0.809017 -0.587785
vn 0.000000 -0.809017 -0.587785
vn 0.000000 -1.000000 -0.000000
s 1
g Cylinder033
usemtl initialShadingGroup
f 30/33/1 21/23/2 50/55/3 41/45/4
s 2
f 21/23/5 22/24/6 49/54/7 50/55/8
s 3
f 22/24/9 23/25/10 48/52/11 49/54/12
s 4
f 23/26/13 24/27/14 47/51/15 48/53/16
s 5
f 24/27/17 25/28/18 46/50/19 47/51/20
s 6
f 25/28/21 26/29/22 45/49/23 46/50/24
s 7
f 26/29/25 27/30/26 44/48/27 45/49/28
s 8
f 27/30/29 28/31/30 43/47/31 44/48/32
s 9
f 28/31/33 29/32/34 42/46/35 43/47/36
s 10
f 29/32/37 30/33/38 41/45/39 42/46/40
s 2
f 31/34/41 32/35/42 22/24/6 21/23/5
s 3
f 32/35/43 33/36/44 23/25/10 22/24/9
s 4
f 33/37/45 34/38/46 24/27/14 23/26/13
s 5
f 34/38/47 35/39/48 25/28/18 24/27/17
s 6
f 35/39/49 36/40/50 26/29/22 25/28/21
s 7
f 36/40/51 37/41/52 27/30/26 26/29/25
s 8
f 37/41/53 38/42/54 28/31/30 27/30/29
s 9
f 38/42/55 39/43/56 29/32/34 28/31/33
s 10
f 39/43/57 40/44/58 30/33/38 29/32/37
s 1
f 40/44/59 31/34/60 21/23/2 30/33/1
s 2
f 2/2/61 3/3/62 32/35/42 31/34/41
s 3
f 3/3/63 4/21/64 33/36/44 32/35/43
s 4
f 4/4/65 5/5/66 34/38/46 33/37/45
s 5
f 5/5/67 6/6/68 35/39/48 34/38/47
s 6
f 6/6/69 7/7/70 36/40/50 35/39/49
s 7
f 7/7/71 8/8/72 37/41/52 36/40/51
s 8
f 8/8/73 9/9/74 38/42/54 37/41/53
s 9
f 9/9/75 10/10/76 39/43/56 38/42/55
s 10
f 10/10/77 1/1/78 40/44/58 39/43/57
s 1
f 1/1/79 2/2/80 31/34/60 40/44/59
s 10
f 42/46/40 41/45/39 11/11/81 20/20/82
s 9
f 43/47/36 42/46/35 20/20/83 19/19/84
s 8
f 44/48/32 43/47/31 19/19/85 18/18/86
s 7
f 45/49/28 44/48/27 18/18/87 17/17/88
s 6
f 46/50/24 45/49/23 17/17/89 16/16/90
s 5
f 47/51/20 46/50/19 16/16/91 15/15/92
s 4
f 48/53/16 47/51/15 15/15/93 14/14/94
s 3
f 49/54/12 48/52/11 14/22/95 13/13/96
s 2
f 50/55/8 49/54/7 13/13/97 12/12/98
s 1
f 41/45/4 50/55/3 12/12/99 11/11/100
