# This file uses centimeters as units for non-parametric coordinates.

mtllib spart 3.mtl
g default
v 0.033251 0.000000 -1.610050
v 0.750000 0.000000 -1.528888
v 0.606763 0.000000 -1.865534
v 0.231763 0.000000 -2.098165
v -0.230994 0.000000 -2.195421
v -0.584298 0.000000 -2.032510
v -0.669627 0.000000 -1.717372
v -0.509421 0.000000 -1.353245
v -0.169068 0.000000 -1.004584
v 0.248347 0.000000 -0.880299
v 0.606763 0.000000 -1.108053
v 0.838289 0.443859 -1.483291
v 0.705955 0.498673 -1.735586
v 0.359500 0.642180 -1.890103
v -0.009096 0.819563 -1.984459
v -0.184121 0.963070 -1.841243
v -0.208799 1.017884 -1.517969
v -0.179895 0.963070 -1.119441
v -0.004746 0.819563 -0.847323
v 0.359645 0.642180 -0.835990
v 0.705955 0.498673 -1.108053
v 1.089715 0.820144 -1.507644
v 0.988431 0.921428 -1.741226
v 0.723266 1.186593 -1.907081
v 0.395504 1.514355 -2.109473
v 0.137285 1.772621 -1.988278
v 0.050177 1.861465 -1.548891
v 0.137285 1.772621 -1.108053
v 0.395504 1.514356 -0.835599
v 0.723266 1.186593 -0.835599
v 0.988431 0.921428 -1.108053
v 1.466000 1.071570 -1.467651
v 1.411186 1.203904 -1.675279
v 1.267680 1.549829 -1.802132
v 1.090296 1.899010 -1.909925
v 0.946790 2.061183 -1.791389
v 0.891975 2.090645 -1.503816
v 0.946790 2.074917 -1.108053
v 1.090296 1.914034 -0.835599
v 1.267680 1.550359 -0.835599
v 1.411186 1.203904 -1.108053
v 1.909859 1.159859 -1.524105
v 1.909859 1.303096 -1.836071
v 1.909859 1.618972 -2.054152
v 1.909859 1.918551 -2.108846
v 1.909859 2.186290 -1.934886
v 1.909859 2.418172 -1.548891
v 1.909859 2.452699 -1.108053
v 1.909859 2.141622 -0.835599
v 1.909859 1.678096 -0.835599
v 1.909859 1.303096 -1.108053
v 1.909859 1.802010 -1.511139
vt 0.745384 0.075589
vt 0.696103 0.359160
vt 0.729065 0.330021
vt 0.705277 0.104728
vt 0.695810 0.075589
vt 0.730064 0.122737
vt 0.760703 0.122737
vt 0.785490 0.104728
vt 0.794958 0.075589
vt 0.785490 0.046450
vt 0.725441 0.359160
vt 0.696103 0.330021
vt 0.696103 0.388299
vt 0.628184 0.030829
vt 0.608915 0.072031
vt 0.599880 0.048949
vt 0.559754 0.388299
vt 0.448577 0.202681
vt 0.511759 0.217082
vt 0.501826 0.239791
vt 0.729065 0.388299
vt 0.747013 0.176224
vt 0.725764 0.205363
vt 0.645364 0.048697
vt 0.620082 0.100562
vt 0.677379 0.262721
vt 0.627035 0.291860
vt 0.623412 0.262721
vt 0.466444 0.185501
vt 0.524036 0.189011
vt 0.722141 0.176224
vt 0.753708 0.205363
vt 0.753708 0.147085
vt 0.666600 0.070782
vt 0.629117 0.123644
vt 0.684074 0.291860
vt 0.623412 0.320999
vt 0.677379 0.320999
vt 0.488529 0.164265
vt 0.533969 0.166301
vt 0.725764 0.147085
vt 0.692802 0.205363
vt 0.692802 0.176224
vt 0.683780 0.088650
vt 0.566310 0.079641
vt 0.559754 0.291860
vt 0.559754 0.262721
vt 0.559754 0.320999
vt 0.506397 0.147085
vt 0.565709 0.228917
vt 0.692802 0.147085
vt 0.498151 0.309869
vt 0.760703 0.028441
vt 0.566796 0.054858
vt 0.565709 0.110273
vt 0.565223 0.135056
vt 0.524036 0.070367
vt 0.533969 0.047657
vt 0.511759 0.098438
vt 0.501826 0.121148
vt 0.488529 0.045621
vt 0.506397 0.028441
vt 0.466444 0.066857
vt 0.448577 0.084037
vt 0.565223 0.253699
vt 0.448577 0.309869
vt 0.458045 0.280730
vt 0.482832 0.262721
vt 0.513470 0.262721
vt 0.538257 0.280730
vt 0.547725 0.309869
vt 0.538257 0.339008
vt 0.513470 0.357017
vt 0.482832 0.357017
vt 0.458045 0.339008
vt 0.627035 0.359160
vt 0.623412 0.388299
vt 0.559754 0.359160
vt 0.623412 0.330021
vt 0.559754 0.330021
vt 0.684074 0.359160
vt 0.677379 0.388299
vt 0.677379 0.330021
vt 0.566310 0.198284
vt 0.566796 0.173502
vt 0.620082 0.219206
vt 0.629117 0.242288
vt 0.608915 0.190675
vt 0.599880 0.167593
vt 0.666600 0.189426
vt 0.683780 0.207293
vt 0.645364 0.167341
vt 0.628184 0.149473
vt 0.730064 0.028441
vt 0.705277 0.046450
vt 0.757008 0.330021
vt 0.750314 0.359160
vt 0.757008 0.388299
vn -0.000000 -1.000000 -0.000000
vn -0.000000 -1.000000 -0.000000
vn -0.000000 -1.000000 -0.000000
vn -0.000000 -1.000000 -0.000000
vn -0.000000 -1.000000 -0.000000
vn -0.000000 -1.000000 -0.000000
vn -0.000000 -1.000000 -0.000000
vn -0.000000 -1.000000 -0.000000
vn -0.000000 -1.000000 -0.000000
vn -0.000000 -1.000000 -0.000000
vn -0.000000 -1.000000 -0.000000
vn -0.000000 -1.000000 -0.000000
vn -0.000000 -1.000000 -0.000000
vn -0.000000 -1.000000 -0.000000
vn -0.000000 -1.000000 -0.000000
vn -0.000000 -1.000000 -0.000000
vn -0.000000 -1.000000 -0.000000
vn -0.000000 -1.000000 -0.000000
vn -0.000000 -1.000000 -0.000000
vn -0.000000 -1.000000 -0.000000
vn -0.000000 -1.000000 -0.000000
vn -0.000000 -1.000000 -0.000000
vn -0.000000 -1.000000 -0.000000
vn -0.000000 -1.000000 -0.000000
vn -0.000000 -1.000000 -0.000000
vn -0.000000 -1.000000 -0.000000
vn -0.000000 -1.000000 -0.000000
vn -0.000000 -1.000000 -0.000000
vn -0.000000 -1.000000 -0.000000
vn -0.000000 -1.000000 -0.000000
vn 0.980785 -0.195090 -0.000000
vn 0.734363 -0.304183 -0.606781
vn 0.923880 -0.382683 -0.000000
vn 0.980785 -0.195090 -0.000000
vn 0.785117 -0.156169 -0.599336
vn 0.734363 -0.304183 -0.606781
vn 0.785117 -0.156169 -0.599336
vn 0.252499 -0.104589 -0.961928
vn 0.734363 -0.304183 -0.606781
vn 0.785117 -0.156169 -0.599336
vn 0.272900 -0.054283 -0.960510
vn 0.252499 -0.104589 -0.961928
vn 0.272900 -0.054283 -0.960510
vn -0.316972 0.131294 -0.939303
vn 0.252499 -0.104589 -0.961928
vn 0.272900 -0.054283 -0.960510
vn -0.342292 0.068086 -0.937124
vn -0.316972 0.131294 -0.939303
vn -0.342292 0.068086 -0.937124
vn -0.758995 0.314386 -0.570164
vn -0.316972 0.131294 -0.939303
vn -0.342292 0.068086 -0.937124
vn -0.810777 0.161274 -0.562701
vn -0.758995 0.314386 -0.570164
vn -0.810777 0.161274 -0.562701
vn -0.923880 0.382683 0.000000
vn -0.758995 0.314386 -0.570164
vn -0.810777 0.161274 -0.562701
vn -0.980785 0.195090 0.000000
vn -0.923880 0.382683 0.000000
vn -0.980785 0.195090 0.000000
vn -0.758995 0.314386 0.570164
vn -0.923880 0.382683 0.000000
vn -0.980785 0.195090 0.000000
vn -0.810777 0.161274 0.562701
vn -0.758995 0.314386 0.570164
vn -0.810777 0.161274 0.562701
vn -0.316972 0.131294 0.939303
vn -0.758995 0.314386 0.570164
vn -0.810777 0.161274 0.562701
vn -0.342292 0.068086 0.937124
vn -0.316972 0.131294 0.939303
vn -0.342292 0.068086 0.937124
vn 0.252499 -0.104589 0.961928
vn -0.316972 0.131294 0.939303
vn -0.342292 0.068086 0.937124
vn 0.272900 -0.054283 0.960510
vn 0.252499 -0.104589 0.961928
vn 0.272900 -0.054283 0.960510
vn 0.734363 -0.304183 0.606781
vn 0.252499 -0.104589 0.961928
vn 0.272900 -0.054283 0.960510
vn 0.785117 -0.156169 0.599336
vn 0.734363 -0.304183 0.606781
vn 0.785117 -0.156169 0.599336
vn 0.923880 -0.382683 -0.000000
vn 0.734363 -0.304183 0.606781
vn 0.785117 -0.156169 0.599336
vn 0.980785 -0.195090 -0.000000
vn 0.923880 -0.382683 -0.000000
vn 0.923880 -0.382683 -0.000000
vn 0.562057 -0.562057 -0.606781
vn 0.707107 -0.707107 -0.000000
vn 0.923880 -0.382683 -0.000000
vn 0.734363 -0.304183 -0.606781
vn 0.562057 -0.562057 -0.606781
vn 0.734363 -0.304183 -0.606781
vn 0.193254 -0.193254 -0.961928
vn 0.562057 -0.562057 -0.606781
vn 0.734363 -0.304183 -0.606781
vn 0.252499 -0.104589 -0.961928
vn 0.193254 -0.193254 -0.961928
vn 0.252499 -0.104589 -0.961928
vn -0.242600 0.242600 -0.939303
vn 0.193254 -0.193254 -0.961928
vn 0.252499 -0.104589 -0.961928
vn -0.316972 0.131294 -0.939303
vn -0.242600 0.242600 -0.939303
vn -0.316972 0.131294 -0.939303
vn -0.580910 0.580910 -0.570164
vn -0.242600 0.242600 -0.939303
vn -0.316972 0.131294 -0.939303
vn -0.758995 0.314386 -0.570164
vn -0.580910 0.580910 -0.570164
vn -0.758995 0.314386 -0.570164
vn -0.707107 0.707107 0.000000
vn -0.580910 0.580910 -0.570164
vn -0.758995 0.314386 -0.570164
vn -0.923880 0.382683 0.000000
vn -0.707107 0.707107 0.000000
vn -0.923880 0.382683 0.000000
vn -0.580910 0.580910 0.570164
vn -0.707107 0.707107 0.000000
vn -0.923880 0.382683 0.000000
vn -0.758995 0.314386 0.570164
vn -0.580910 0.580910 0.570164
vn -0.758995 0.314386 0.570164
vn -0.242600 0.242600 0.939303
vn -0.580910 0.580910 0.570164
vn -0.758995 0.314386 0.570164
vn -0.316972 0.131294 0.939303
vn -0.242600 0.242600 0.939303
vn -0.316972 0.131294 0.939303
vn 0.193255 -0.193255 0.961928
vn -0.242600 0.242600 0.939303
vn -0.316972 0.131294 0.939303
vn 0.252499 -0.104589 0.961928
vn 0.193255 -0.193255 0.961928
vn 0.252499 -0.104589 0.961928
vn 0.562058 -0.562058 0.606780
vn 0.193255 -0.193255 0.961928
vn 0.252499 -0.104589 0.961928
vn 0.734363 -0.304183 0.606781
vn 0.562058 -0.562058 0.606780
vn 0.734363 -0.304183 0.606781
vn 0.707107 -0.707107 -0.000000
vn 0.562058 -0.562058 0.606780
vn 0.734363 -0.304183 0.606781
vn 0.923880 -0.382683 -0.000000
vn 0.707107 -0.707107 -0.000000
vn 0.707107 -0.707107 -0.000000
vn 0.304183 -0.734363 -0.606781
vn 0.382683 -0.923880 -0.000000
vn 0.707107 -0.707107 -0.000000
vn 0.562057 -0.562057 -0.606781
vn 0.304183 -0.734363 -0.606781
vn 0.562057 -0.562057 -0.606781
vn 0.104589 -0.252499 -0.961928
vn 0.304183 -0.734363 -0.606781
vn 0.562057 -0.562057 -0.606781
vn 0.193254 -0.193254 -0.961928
vn 0.104589 -0.252499 -0.961928
vn 0.193254 -0.193254 -0.961928
vn -0.131294 0.316972 -0.939303
vn 0.104589 -0.252499 -0.961928
vn 0.193254 -0.193254 -0.961928
vn -0.242600 0.242600 -0.939303
vn -0.131294 0.316972 -0.939303
vn -0.242600 0.242600 -0.939303
vn -0.314386 0.758995 -0.570164
vn -0.131294 0.316972 -0.939303
vn -0.242600 0.242600 -0.939303
vn -0.580910 0.580910 -0.570164
vn -0.314386 0.758995 -0.570164
vn -0.580910 0.580910 -0.570164
vn -0.382683 0.923880 0.000000
vn -0.314386 0.758995 -0.570164
vn -0.580910 0.580910 -0.570164
vn -0.707107 0.707107 0.000000
vn -0.382683 0.923880 0.000000
vn -0.707107 0.707107 0.000000
vn -0.314386 0.758995 0.570164
vn -0.382683 0.923880 0.000000
vn -0.707107 0.707107 0.000000
vn -0.580910 0.580910 0.570164
vn -0.314386 0.758995 0.570164
vn -0.580910 0.580910 0.570164
vn -0.131294 0.316972 0.939303
vn -0.314386 0.758995 0.570164
vn -0.580910 0.580910 0.570164
vn -0.242600 0.242600 0.939303
vn -0.131294 0.316972 0.939303
vn -0.242600 0.242600 0.939303
vn 0.104589 -0.252499 0.961928
vn -0.131294 0.316972 0.939303
vn -0.242600 0.242600 0.939303
vn 0.193255 -0.193255 0.961928
vn 0.104589 -0.252499 0.961928
vn 0.193255 -0.193255 0.961928
vn 0.304183 -0.734364 0.606781
vn 0.104589 -0.252499 0.961928
vn 0.193255 -0.193255 0.961928
vn 0.562058 -0.562058 0.606780
vn 0.304183 -0.734364 0.606781
vn 0.562058 -0.562058 0.606780
vn 0.382683 -0.923880 -0.000000
vn 0.304183 -0.734364 0.606781
vn 0.562058 -0.562058 0.606780
vn 0.707107 -0.707107 -0.000000
vn 0.382683 -0.923880 -0.000000
vn 0.382683 -0.923880 -0.000000
vn 0.156169 -0.785117 -0.599336
vn 0.195090 -0.980785 -0.000000
vn 0.382683 -0.923880 -0.000000
vn 0.304183 -0.734363 -0.606781
vn 0.156169 -0.785117 -0.599336
vn 0.304183 -0.734363 -0.606781
vn 0.054283 -0.272900 -0.960510
vn 0.156169 -0.785117 -0.599336
vn 0.304183 -0.734363 -0.606781
vn 0.104589 -0.252499 -0.961928
vn 0.054283 -0.272900 -0.960510
vn 0.104589 -0.252499 -0.961928
vn -0.068086 0.342292 -0.937124
vn 0.054283 -0.272900 -0.960510
vn 0.104589 -0.252499 -0.961928
vn -0.131294 0.316972 -0.939303
vn -0.068086 0.342292 -0.937124
vn -0.131294 0.316972 -0.939303
vn -0.161273 0.810777 -0.562701
vn -0.068086 0.342292 -0.937124
vn -0.131294 0.316972 -0.939303
vn -0.314386 0.758995 -0.570164
vn -0.161273 0.810777 -0.562701
vn -0.314386 0.758995 -0.570164
vn -0.195090 0.980785 0.000000
vn -0.161273 0.810777 -0.562701
vn -0.314386 0.758995 -0.570164
vn -0.382683 0.923880 0.000000
vn -0.195090 0.980785 0.000000
vn -0.382683 0.923880 0.000000
vn -0.161273 0.810777 0.562701
vn -0.195090 0.980785 0.000000
vn -0.382683 0.923880 0.000000
vn -0.314386 0.758995 0.570164
vn -0.161273 0.810777 0.562701
vn -0.314386 0.758995 0.570164
vn -0.068086 0.342292 0.937124
vn -0.161273 0.810777 0.562701
vn -0.314386 0.758995 0.570164
vn -0.131294 0.316972 0.939303
vn -0.068086 0.342292 0.937124
vn -0.131294 0.316972 0.939303
vn 0.054283 -0.272900 0.960510
vn -0.068086 0.342292 0.937124
vn -0.131294 0.316972 0.939303
vn 0.104589 -0.252499 0.961928
vn 0.054283 -0.272900 0.960510
vn 0.104589 -0.252499 0.961928
vn 0.156169 -0.785117 0.599335
vn 0.054283 -0.272900 0.960510
vn 0.104589 -0.252499 0.961928
vn 0.304183 -0.734364 0.606781
vn 0.156169 -0.785117 0.599335
vn 0.304183 -0.734364 0.606781
vn 0.195090 -0.980785 -0.000000
vn 0.156169 -0.785117 0.599335
vn 0.304183 -0.734364 0.606781
vn 0.382683 -0.923880 -0.000000
vn 0.195090 -0.980785 -0.000000
vn 1.000000 -0.000000 0.000000
vn 1.000000 0.000000 0.000000
vn 1.000000 0.000000 0.000000
vn 1.000000 -0.000000 0.000000
vn 1.000000 0.000000 0.000000
vn 1.000000 0.000000 0.000000
vn 1.000000 -0.000000 0.000000
vn 1.000000 0.000000 0.000000
vn 1.000000 -0.000000 -0.000000
vn 1.000000 -0.000000 0.000000
vn 1.000000 -0.000000 -0.000000
vn 1.000000 -0.000000 -0.000000
vn 1.000000 -0.000000 0.000000
vn 1.000000 -0.000000 -0.000000
vn 1.000000 -0.000000 -0.000000
vn 1.000000 -0.000000 0.000000
vn 1.000000 -0.000000 -0.000000
vn 1.000000 -0.000000 0.000000
vn 1.000000 -0.000000 0.000000
vn 1.000000 -0.000000 0.000000
vn 1.000000 -0.000000 0.000000
vn 1.000000 -0.000000 0.000000
vn 1.000000 -0.000000 0.000000
vn 1.000000 0.000000 0.000000
vn 1.000000 -0.000000 0.000000
vn 1.000000 0.000000 0.000000
vn 1.000000 0.000000 0.000000
vn 1.000000 -0.000000 0.000000
vn 1.000000 0.000000 0.000000
vn 1.000000 0.000000 0.000000
s off
g Cylinder038
usemtl initialShadingGroup
f 1/1/1 3/4/2 2/5/3
f 1/1/4 4/6/5 3/4/6
f 1/1/7 5/7/8 4/6/9
f 1/1/10 6/8/11 5/7/12
f 1/1/13 7/9/14 6/8/15
f 1/1/16 8/10/17 7/9/18
f 1/1/19 9/53/20 8/10/21
f 1/1/22 10/94/23 9/53/24
f 1/1/25 11/95/26 10/94/27
f 1/1/28 2/5/29 11/95/30
f 2/2/31 13/3/32 12/11/33
f 2/2/34 3/12/35 13/3/36
f 3/14/37 14/15/38 13/16/39
f 3/14/40 4/24/41 14/15/42
f 4/24/43 15/25/44 14/15/45
f 4/24/46 5/34/47 15/25/48
f 5/34/49 16/35/50 15/25/51
f 5/34/52 6/44/53 16/35/54
f 6/17/55 17/76/56 16/77/57
f 6/17/58 7/78/59 17/76/60
f 7/78/61 18/79/62 17/76/63
f 7/78/64 8/80/65 18/79/66
f 8/18/67 19/19/68 18/20/69
f 8/18/70 9/29/71 19/19/72
f 9/29/73 20/30/74 19/19/75
f 9/29/76 10/39/77 20/30/78
f 10/39/79 21/40/80 20/30/81
f 10/39/82 11/49/83 21/40/84
f 11/13/85 12/11/86 21/21/87
f 11/13/88 2/2/89 12/11/90
f 12/11/91 23/96/92 22/97/93
f 12/11/94 13/3/95 23/96/96
f 13/16/97 24/45/98 23/54/99
f 13/16/100 14/15/101 24/45/102
f 14/15/103 25/55/104 24/45/105
f 14/15/106 15/25/107 25/55/108
f 15/25/109 26/56/110 25/55/111
f 15/25/112 16/35/113 26/56/114
f 16/77/115 27/81/116 26/82/117
f 16/77/118 17/76/119 27/81/120
f 17/76/121 28/83/122 27/81/123
f 17/76/124 18/79/125 28/83/126
f 18/20/127 29/50/128 28/65/129
f 18/20/130 19/19/131 29/50/132
f 19/19/133 30/84/134 29/50/135
f 19/19/136 20/30/137 30/84/138
f 20/30/139 31/85/140 30/84/141
f 20/30/142 21/40/143 31/85/144
f 21/21/145 22/97/146 31/98/147
f 21/21/148 12/11/149 22/97/150
f 22/22/151 33/23/152 32/31/153
f 22/22/154 23/32/155 33/23/156
f 23/54/157 34/57/158 33/58/159
f 23/54/160 24/45/161 34/57/162
f 24/45/163 35/59/164 34/57/165
f 24/45/166 25/55/167 35/59/168
f 25/55/169 36/60/170 35/59/171
f 25/55/172 26/56/173 36/60/174
f 26/26/175 37/27/176 36/28/177
f 26/26/178 27/36/179 37/27/180
f 27/36/181 38/37/182 37/27/183
f 27/36/184 28/38/185 38/37/186
f 28/65/187 39/86/188 38/87/189
f 28/65/190 29/50/191 39/86/192
f 29/50/193 40/88/194 39/86/195
f 29/50/196 30/84/197 40/88/198
f 30/84/199 41/89/200 40/88/201
f 30/84/202 31/85/203 41/89/204
f 31/33/205 32/31/206 41/41/207
f 31/33/208 22/22/209 32/31/210
f 32/31/211 43/42/212 42/43/213
f 32/31/214 33/23/215 43/42/216
f 33/58/217 44/61/218 43/62/219
f 33/58/220 34/57/221 44/61/222
f 34/57/223 45/63/224 44/61/225
f 34/57/226 35/59/227 45/63/228
f 35/59/229 46/64/230 45/63/231
f 35/59/232 36/60/233 46/64/234
f 36/28/235 47/46/236 46/47/237
f 36/28/238 37/27/239 47/46/240
f 37/27/241 48/48/242 47/46/243
f 37/27/244 38/37/245 48/48/246
f 38/87/247 49/90/248 48/91/249
f 38/87/250 39/86/251 49/90/252
f 39/86/253 50/92/254 49/90/255
f 39/86/256 40/88/257 50/92/258
f 40/88/259 51/93/260 50/92/261
f 40/88/262 41/89/263 51/93/264
f 41/41/265 42/43/266 51/51/267
f 41/41/268 32/31/269 42/43/270
f 52/52/271 42/66/272 43/67/273
f 52/52/274 43/67/275 44/68/276
f 52/52/277 44/68/278 45/69/279
f 52/52/280 45/69/281 46/70/282
f 52/52/283 46/70/284 47/71/285
f 52/52/286 47/71/287 48/72/288
f 52/52/289 48/72/290 49/73/291
f 52/52/292 49/73/293 50/74/294
f 52/52/295 50/74/296 51/75/297
f 52/52/298 51/75/299 42/66/300
