# 3ds Max Wavefront OBJ Exporter v0.97b - (c)2007 guruware
# File Created: 28.06.2016 13:40:19

#
# object NGon001
#

v  -213.5470 6.4092 75.0347
v  -218.3163 6.4092 158.2657
v  -218.3163 -2.1873 158.2657
v  -213.5470 -2.1873 75.0347
v  -250.1997 6.4092 95.2806
v  -250.1997 -2.1873 95.2806
v  -223.6492 -11.1390 132.1157
v  -237.8166 -11.1390 99.7564
v  -221.9496 -11.1390 90.1795
v  -223.6492 15.3610 132.1157
v  -221.9496 15.3610 90.1795
v  -237.8166 15.3610 99.7564
v  -220.7298 -8.1873 146.5479
v  -219.3881 -8.1873 85.4745
v  -219.3881 12.4092 85.4745
v  -220.7298 12.4092 146.5479
v  -241.7868 -8.1873 98.4664
v  -241.7868 12.4092 98.4664
v  -219.3881 -2.1873 85.4745
v  -220.7298 -2.1873 146.5479
v  -241.7868 -2.1873 98.4664
v  -220.7298 6.4092 146.5479
v  -219.3881 6.4092 85.4745
v  -241.7868 6.4092 98.4664
v  -216.0583 -2.1873 79.3582
v  -219.3490 -2.1873 153.3735
v  -245.4317 -2.1873 96.7862
v  -219.3490 6.4092 153.3735
v  -216.0583 6.4092 79.3582
v  -245.4317 6.4092 96.7862
v  -218.4746 -6.9946 157.5253
v  -215.1462 -6.9946 77.7879
v  -214.4846 -6.9946 76.5943
v  -219.1387 -6.9946 154.4445
v  -246.8311 -6.9946 96.3445
v  -248.7675 -6.9946 95.7236
v  -215.1462 11.2165 77.7879
v  -218.4746 11.2165 157.5253
v  -219.1387 11.2165 154.4445
v  -214.4846 11.2165 76.5943
v  -246.8311 11.2165 96.3445
v  -248.7675 11.2165 95.7236
v  -216.0583 -5.6692 79.3582
v  -219.3490 -5.6692 153.3735
v  -245.4317 -5.6692 96.7862
v  -218.3163 -5.6692 158.2657
v  -213.5470 -5.6692 75.0347
v  -250.1997 -5.6692 95.2806
v  -219.3490 9.8911 153.3735
v  -216.0583 9.8911 79.3582
v  -245.4317 9.8911 96.7862
v  -213.5470 9.8911 75.0347
v  -218.3163 9.8911 158.2657
v  -250.1997 9.8911 95.2806
# 54 vertices

vn 0.9984 0.0000 0.0572
vn -0.4835 0.0000 -0.8753
vn -0.8922 0.0000 0.4516
vn 0.0000 -1.0000 -0.0000
vn 0.0000 1.0000 -0.0000
vn 0.6744 -0.7380 0.0241
vn 0.6440 -0.7646 0.0261
vn 0.7646 -0.6442 0.0172
vn 0.7683 -0.6398 0.0169
vn 0.7659 0.6423 0.0293
vn 0.7793 0.6259 0.0316
vn 0.6770 0.7358 0.0153
vn 0.6738 0.7388 0.0148
vn -0.3722 -0.6884 -0.6226
vn -0.3810 -0.6756 -0.6312
vn -0.3484 -0.7212 -0.5987
vn -0.3455 -0.7251 -0.5957
vn -0.3554 0.7222 -0.5934
vn -0.3530 0.7303 -0.5848
vn -0.3640 0.6900 -0.6256
vn -0.3650 0.6862 -0.6292
vn -0.6297 -0.7263 0.2757
vn -0.6296 -0.7264 0.2757
vn -0.6300 -0.7259 0.2759
vn -0.6300 0.7259 0.2759
vn -0.6302 0.7257 0.2759
vn -0.6296 0.7263 0.2757
vn 0.9998 0.0000 0.0220
vn -0.5017 0.0000 -0.8650
vn -0.9160 0.0000 0.4012
vn -0.9990 0.0000 -0.0444
vn 0.5103 0.0000 0.8600
vn 0.9082 0.0000 -0.4186
vn -0.8434 -0.5360 -0.0375
vn -0.7841 -0.6198 -0.0327
vn 0.3935 -0.6366 0.6633
vn 0.4190 -0.5592 0.7153
vn 0.7398 -0.5801 -0.3410
vn 0.7023 -0.6331 -0.3255
vn 0.7855 -0.6172 0.0450
vn 0.8423 -0.5366 0.0504
vn -0.6923 -0.6309 0.3504
vn -0.7160 -0.5973 0.3613
vn -0.3983 -0.5668 -0.7211
vn -0.3771 -0.6333 -0.6758
vn -0.7808 0.6239 -0.0347
vn -0.8422 0.5380 -0.0352
vn 0.7025 0.6338 -0.3238
vn 0.7368 0.5836 -0.3415
vn 0.4243 0.5554 0.7152
vn 0.3906 0.6346 0.6669
vn 0.8413 0.5384 0.0482
vn 0.7827 0.6206 0.0468
vn -0.3748 0.6318 -0.6785
vn -0.4024 0.5640 -0.7211
vn -0.7143 0.5993 0.3616
vn -0.6924 0.6313 0.3493
# 57 vertex normals

g NGon001
s 1
f 1//1 2//1 3//1 
f 3//1 4//1 1//1 
s 2
f 5//2 1//2 4//2 
f 4//2 6//2 5//2 
s 4
f 2//3 5//3 6//3 
f 6//3 3//3 2//3 
s 1
f 7//4 8//4 9//4 
f 10//5 11//5 12//5 
s 8
f 13//6 7//7 9//8 
f 9//8 14//9 13//6 
f 15//10 11//11 10//12 
f 10//12 16//13 15//10 
s 16
f 14//14 9//15 8//16 
f 8//16 17//17 14//14 
f 18//18 12//19 11//20 
f 11//20 15//21 18//18 
s 32
f 17//22 8//23 7//24 
f 7//24 13//24 17//22 
f 16//25 10//26 12//27 
f 12//27 18//27 16//25 
s off
f 13//28 14//28 19//28 
f 19//28 20//28 13//28 
f 14//29 17//29 21//29 
f 21//29 19//29 14//29 
f 17//30 13//30 20//30 
f 20//30 21//30 17//30 
f 15//28 16//28 22//28 
f 22//28 23//28 15//28 
f 16//30 18//30 24//30 
f 24//30 22//30 16//30 
f 18//29 15//29 23//29 
f 23//29 24//29 18//29 
f 20//4 19//4 25//4 
f 25//4 26//4 20//4 
f 19//4 21//4 27//4 
f 27//4 25//4 19//4 
f 21//4 20//4 26//4 
f 26//4 27//4 21//4 
f 23//5 22//5 28//5 
f 28//5 29//5 23//5 
f 22//5 24//5 30//5 
f 30//5 28//5 22//5 
f 24//5 23//5 29//5 
f 29//5 30//5 24//5 
f 31//4 32//4 33//4 
f 33//5 34//5 31//5 
f 32//4 35//4 36//4 
f 36//4 33//4 32//4 
f 35//5 31//5 34//5 
f 34//4 36//4 35//4 
f 37//4 38//4 39//4 
f 39//5 40//5 37//5 
f 38//5 41//5 42//5 
f 42//4 39//4 38//4 
f 41//5 37//5 40//5 
f 40//5 42//5 41//5 
f 26//31 25//31 43//31 
f 43//31 44//31 26//31 
f 25//32 27//32 45//32 
f 45//32 43//32 25//32 
f 27//33 26//33 44//33 
f 44//33 45//33 27//33 
f 4//1 3//1 46//1 
f 46//1 47//1 4//1 
f 3//3 6//3 48//3 
f 48//3 46//3 3//3 
f 6//2 4//2 47//2 
f 47//2 48//2 6//2 
f 29//31 28//31 49//31 
f 49//31 50//31 29//31 
f 28//33 30//33 51//33 
f 51//33 49//33 28//33 
f 30//32 29//32 50//32 
f 50//32 51//32 30//32 
f 2//1 1//1 52//1 
f 52//1 53//1 2//1 
f 1//2 5//2 54//2 
f 54//2 52//2 1//2 
f 5//3 2//3 53//3 
f 53//3 54//3 5//3 
f 44//34 43//34 32//34 
f 32//35 31//35 44//35 
f 43//36 45//36 35//36 
f 35//37 32//37 43//37 
f 45//38 44//38 31//38 
f 31//39 35//39 45//39 
f 47//40 46//40 34//40 
f 34//41 33//41 47//41 
f 46//42 48//42 36//42 
f 36//43 34//43 46//43 
f 48//44 47//44 33//44 
f 33//45 36//45 48//45 
f 50//46 49//46 38//46 
f 38//47 37//47 50//47 
f 49//48 51//48 41//48 
f 41//49 38//49 49//49 
f 51//50 50//50 37//50 
f 37//51 41//51 51//51 
f 53//52 52//52 40//52 
f 40//53 39//53 53//53 
f 52//54 54//54 42//54 
f 42//55 40//55 52//55 
f 54//56 53//56 39//56 
f 39//57 42//57 54//57 
# 104 faces

