# 3ds Max Wavefront OBJ Exporter v0.97b - (c)2007 guruware
# File Created: 28.06.2016 13:40:40

#
# object Object003
#

v  215.7868 6.4092 74.9141
v  215.7868 -2.1873 74.9141
v  216.1936 -2.1873 158.2807
v  216.1936 6.4092 158.2807
v  251.3296 6.4092 97.0506
v  251.3296 -2.1873 97.0506
v  222.8877 -11.1390 132.4456
v  223.3852 -11.1390 90.4780
v  238.7293 -11.1390 100.8722
v  222.8877 15.3610 132.4456
v  238.7293 15.3610 100.8722
v  223.3852 15.3610 90.4780
v  219.2169 -8.1873 146.7053
v  221.0735 -8.1873 85.6453
v  221.0735 12.4092 85.6453
v  219.2169 12.4092 146.7053
v  242.7615 -8.1873 99.7918
v  242.7615 12.4092 99.7918
v  219.2169 -2.1873 146.7053
v  221.0735 -2.1873 85.6453
v  242.7615 -2.1873 99.7918
v  221.0735 6.4092 85.6453
v  219.2169 6.4092 146.7053
v  242.7615 6.4092 99.7918
v  217.4809 -2.1873 153.4493
v  218.0684 -2.1873 79.3632
v  246.4894 -2.1873 98.3046
v  218.0684 6.4092 79.3632
v  217.4809 6.4092 153.4493
v  246.4894 6.4092 98.3046
v  216.3904 -6.9946 157.5496
v  217.2148 -6.9946 154.5078
v  216.6415 -6.9946 76.5207
v  217.2397 -6.9946 77.7473
v  249.8763 -6.9946 97.4181
v  247.9100 -6.9946 97.9367
v  217.2397 11.2165 77.7473
v  216.6415 11.2165 76.5207
v  217.2148 11.2165 154.5078
v  216.3904 11.2165 157.5496
v  249.8763 11.2165 97.4181
v  247.9100 11.2165 97.9367
v  217.4809 -5.6692 153.4493
v  218.0684 -5.6692 79.3632
v  246.4894 -5.6692 98.3046
v  215.7868 -5.6692 74.9141
v  216.1936 -5.6692 158.2807
v  251.3296 -5.6692 97.0506
v  218.0684 9.8911 79.3632
v  217.4809 9.8911 153.4493
v  246.4894 9.8911 98.3046
v  216.1936 9.8911 158.2807
v  215.7868 9.8911 74.9141
v  251.3296 9.8911 97.0506
# 54 vertices

vn -1.0000 0.0000 0.0049
vn 0.5287 0.0000 -0.8488
vn 0.8673 0.0000 0.4977
vn 0.0000 -1.0000 -0.0000
vn 0.0000 1.0000 -0.0000
vn -0.6747 -0.7380 -0.0113
vn -0.7682 -0.6398 -0.0234
vn -0.7645 -0.6442 -0.0229
vn -0.6445 -0.7646 -0.0076
vn -0.7664 0.6423 -0.0108
vn -0.6736 0.7388 -0.0205
vn -0.6769 0.7358 -0.0202
vn -0.7799 0.6259 -0.0092
vn 0.4043 -0.6884 -0.6022
vn 0.3762 -0.7251 -0.5768
vn 0.3793 -0.7212 -0.5796
vn 0.4135 -0.6756 -0.6104
vn 0.3859 0.7222 -0.5740
vn 0.3974 0.6862 -0.6092
vn 0.3963 0.6900 -0.6057
vn 0.3831 0.7303 -0.5655
vn 0.6144 -0.7263 0.3083
vn 0.6147 -0.7259 0.3085
vn 0.6143 -0.7264 0.3082
vn 0.6147 0.7259 0.3085
vn 0.6143 0.7263 0.3083
vn 0.6149 0.7257 0.3085
vn -0.9995 0.0000 -0.0304
vn 0.5463 0.0000 -0.8376
vn 0.8938 0.0000 0.4486
vn 1.0000 0.0000 0.0079
vn -0.5546 0.0000 0.8321
vn -0.8850 0.0000 -0.4656
vn 0.7847 -0.6198 0.0084
vn 0.8442 -0.5360 0.0067
vn -0.4558 -0.5592 0.6924
vn -0.4277 -0.6366 0.6418
vn -0.6843 -0.6331 -0.3618
vn -0.7209 -0.5801 -0.3792
vn -0.8438 -0.5366 0.0062
vn -0.7868 -0.6172 0.0038
vn 0.6961 -0.5973 0.3983
vn 0.6730 -0.6309 0.3862
vn 0.4119 -0.6333 -0.6551
vn 0.4355 -0.5668 -0.6993
vn 0.8429 0.5380 0.0090
vn 0.7815 0.6239 0.0062
vn -0.7179 0.5836 -0.3796
vn -0.6846 0.6338 -0.3601
vn -0.4249 0.6346 0.6455
vn -0.4612 0.5554 0.6920
vn -0.7841 0.6206 0.0058
vn -0.8427 0.5384 0.0041
vn 0.4396 0.5640 -0.6991
vn 0.4098 0.6318 -0.6580
vn 0.6731 0.6313 0.3851
vn 0.6944 0.5993 0.3984
# 57 vertex normals

g Object003
s 1
f 1//1 2//1 3//1 
f 3//1 4//1 1//1 
s 2
f 5//2 6//2 2//2 
f 2//2 1//2 5//2 
s 4
f 4//3 3//3 6//3 
f 6//3 5//3 4//3 
s 1
f 7//4 8//4 9//4 
f 10//5 11//5 12//5 
s 8
f 13//6 14//7 8//8 
f 8//8 7//9 13//6 
f 15//10 16//11 10//12 
f 10//12 12//13 15//10 
s 16
f 14//14 17//15 9//16 
f 9//16 8//17 14//14 
f 18//18 15//19 12//20 
f 12//20 11//21 18//18 
s 32
f 17//22 13//23 7//23 
f 7//23 9//24 17//22 
f 16//25 18//26 11//26 
f 11//26 10//27 16//25 
s off
f 13//28 19//28 20//28 
f 20//28 14//28 13//28 
f 14//29 20//29 21//29 
f 21//29 17//29 14//29 
f 17//30 21//30 19//30 
f 19//30 13//30 17//30 
f 15//28 22//28 23//28 
f 23//28 16//28 15//28 
f 16//30 23//30 24//30 
f 24//30 18//30 16//30 
f 18//29 24//29 22//29 
f 22//29 15//29 18//29 
f 19//4 25//4 26//4 
f 26//4 20//4 19//4 
f 20//4 26//4 27//4 
f 27//4 21//4 20//4 
f 21//4 27//4 25//4 
f 25//4 19//4 21//4 
f 22//5 28//5 29//5 
f 29//5 23//5 22//5 
f 23//5 29//5 30//5 
f 30//5 24//5 23//5 
f 24//5 30//5 28//5 
f 28//5 22//5 24//5 
f 31//5 32//5 33//5 
f 33//4 34//4 31//4 
f 34//4 33//4 35//4 
f 35//4 36//4 34//4 
f 36//4 35//4 32//4 
f 32//5 31//5 36//5 
f 37//5 38//5 39//5 
f 39//4 40//4 37//4 
f 40//4 39//4 41//4 
f 41//5 42//5 40//5 
f 42//5 41//5 38//5 
f 38//5 37//5 42//5 
f 25//31 43//31 44//31 
f 44//31 26//31 25//31 
f 26//32 44//32 45//32 
f 45//32 27//32 26//32 
f 27//33 45//33 43//33 
f 43//33 25//33 27//33 
f 2//1 46//1 47//1 
f 47//1 3//1 2//1 
f 3//3 47//3 48//3 
f 48//3 6//3 3//3 
f 6//2 48//2 46//2 
f 46//2 2//2 6//2 
f 28//31 49//31 50//31 
f 50//31 29//31 28//31 
f 29//33 50//33 51//33 
f 51//33 30//33 29//33 
f 30//32 51//32 49//32 
f 49//32 28//32 30//32 
f 4//1 52//1 53//1 
f 53//1 1//1 4//1 
f 1//2 53//2 54//2 
f 54//2 5//2 1//2 
f 5//3 54//3 52//3 
f 52//3 4//3 5//3 
f 43//34 31//34 34//34 
f 34//35 44//35 43//35 
f 44//36 34//36 36//36 
f 36//37 45//37 44//37 
f 45//38 36//38 31//38 
f 31//39 43//39 45//39 
f 46//40 33//40 32//40 
f 32//41 47//41 46//41 
f 47//42 32//42 35//42 
f 35//43 48//43 47//43 
f 48//44 35//44 33//44 
f 33//45 46//45 48//45 
f 49//46 37//46 40//46 
f 40//47 50//47 49//47 
f 50//48 40//48 42//48 
f 42//49 51//49 50//49 
f 51//50 42//50 37//50 
f 37//51 49//51 51//51 
f 52//52 39//52 38//52 
f 38//53 53//53 52//53 
f 53//54 38//54 41//54 
f 41//55 54//55 53//55 
f 54//56 41//56 39//56 
f 39//57 52//57 54//57 
# 104 faces

