# 3ds Max Wavefront OBJ Exporter v0.97b - (c)2007 guruware
# File Created: 28.06.2016 13:51:05

#
# object Line001
#

v  46.8544 11.5482 97.3980
v  46.8544 2.9518 97.3980
v  82.6655 2.9518 158.5237
v  82.6655 11.5482 158.5237
v  82.6655 11.5482 74.2443
v  82.6655 2.9518 74.2443
v  79.7137 0.0000 79.6678
v  79.7137 0.0000 147.6459
v  50.8292 0.0000 98.3431
v  79.7137 14.5000 79.6678
v  50.8292 14.5000 98.3431
v  79.7137 14.5000 147.6459
# 12 vertices

vn -0.8628 0.0000 0.5055
vn -0.5430 0.0000 -0.8398
vn 1.0000 0.0000 -0.0000
vn 0.0000 -1.0000 -0.0000
vn 0.0000 1.0000 -0.0000
vn -0.6101 -0.7071 0.3574
vn -0.6101 0.7071 0.3574
vn -0.3839 -0.7071 -0.5938
vn -0.3839 0.7071 -0.5938
vn 0.7071 -0.7071 -0.0000
vn 0.7071 0.7071 -0.0000
# 11 vertex normals

vt 0.3588 0.0453 0.0000
vt 0.3588 0.0020 0.0000
vt 0.0020 0.0020 0.0000
vt 0.0020 0.0453 0.0000
vt 0.5735 0.0453 0.0000
vt 0.5735 0.0020 0.0000
vt 0.9980 0.0453 0.0000
vt 0.9980 0.0020 0.0000
vt 0.8336 0.1762 0.0000
vt 0.2379 0.1762 0.0000
vt 0.6700 0.4294 0.0000
vt 0.2086 0.5026 0.0000
vt 0.3722 0.7558 0.0000
vt 0.8043 0.5026 0.0000
vt 0.1426 0.1504 0.0000
vt 0.6782 0.4642 0.0000
vt 0.3639 0.7906 0.0000
vt 0.8996 0.4767 0.0000
vt 0.8812 0.1504 0.0000
vt 0.1610 0.4767 0.0000
# 20 texture coords

g Line001
s 1
f 1/1/1 2/2/1 3/3/1 
f 3/3/1 4/4/1 1/1/1 
s 4
f 5/5/2 6/6/2 2/2/2 
f 2/2/2 1/1/2 5/5/2 
s 2
f 4/7/3 3/8/3 6/6/3 
f 6/6/3 5/5/3 4/7/3 
s 16
f 7/9/4 8/10/4 9/11/4 
f 10/12/5 11/13/5 12/14/5 
s off
f 3/15/6 2/16/6 9/11/6 
f 9/11/6 8/10/6 3/15/6 
f 1/17/7 4/18/7 12/14/7 
f 12/14/7 11/13/7 1/17/7 
f 2/16/8 6/19/8 7/9/8 
f 7/9/8 9/11/8 2/16/8 
f 5/20/9 1/17/9 11/13/9 
f 11/13/9 10/12/9 5/20/9 
f 6/19/10 3/15/10 8/10/10 
f 8/10/10 7/9/10 6/19/10 
f 4/18/11 5/20/11 10/12/11 
f 10/12/11 12/14/11 4/18/11 
# 20 faces

